<?xml version="1.0" encoding="iso-8859-1"?>
<!-- Uploaded to: SVG Repo, www.svgrepo.com, Generator: SVG Repo Mixer Tools -->
<svg version="1.1" id="Layer_1" xmlns="http://www.w3.org/2000/svg" xmlns:xlink="http://www.w3.org/1999/xlink" 
	 viewBox="0 0 511.997 511.997" xml:space="preserve">
<rect x="102.877" y="440.832" style="fill:#575759;" width="33.391" height="71.165"/>
<rect x="375.728" y="440.832" style="fill:#474748;" width="33.391" height="71.165"/>
<rect x="57.008" y="16.696" style="fill:#69351D;" width="397.991" height="283.826"/>
<rect x="57.008" y="298.919" style="fill:#C17644;" width="397.991" height="141.913"/>
<rect x="255.998" y="16.696" style="fill:#542C19;" width="198.99" height="283.826"/>
<rect x="87.283" y="194.07" style="fill:#A7DC5E;" width="23.253" height="93.83"/>
<rect x="110.535" y="199.402" style="fill:#F1CE30;" width="23.253" height="88.498"/>
<rect x="133.786" y="194.07" style="fill:#B90B27;" width="23.253" height="93.83"/>
<rect x="171.75" y="187.673" transform="matrix(-0.9449 0.3273 -0.3273 -0.9449 433.4335 396.2331)" style="fill:#79D5DE;" width="23.252" height="93.828"/>
<rect x="401.807" y="52.736" style="fill:#97C655;" width="23.253" height="93.83"/>
<rect x="378.556" y="58.067" style="fill:#C74B21;" width="23.253" height="88.498"/>
<rect x="355.304" y="52.736" style="fill:#D9BA2C;" width="23.253" height="93.83"/>
<rect x="317.348" y="46.351" transform="matrix(0.9449 0.3273 -0.3273 0.9449 48.6465 -102.538)" style="fill:#982959;" width="23.252" height="93.828"/>
<rect x="255.998" y="298.919" style="fill:#9A5F38;" width="198.99" height="141.913"/>
<g>
	<path style="fill:#954927;" d="M40.306,0v457.531h431.383V0H40.306z M438.299,33.391V141.38H73.697V33.391H438.299z
		 M438.299,174.771V282.76H73.697V174.771H438.299z M73.697,424.14V316.151h364.601V424.14H73.697z"/>
	<rect x="239.303" y="302.336" style="fill:#954927;" width="33.391" height="134.4"/>
</g>
<g>
	<rect x="255.998" y="302.336" style="fill:#783C21;" width="16.696" height="134.4"/>
	<polygon style="fill:#783C21;" points="471.691,0 255.998,0 255.998,33.391 438.299,33.391 438.299,141.38 255.998,141.38 
		255.998,174.771 438.299,174.771 438.299,282.76 255.998,282.76 255.998,316.151 438.299,316.151 438.299,424.14 255.998,424.14 
		255.998,457.531 471.691,457.531 	"/>
</g>
<circle style="fill:#2A2A2A;" cx="198.12" cy="370.677" r="13.357"/>
<circle cx="313.877" cy="370.677" r="13.357"/>
</svg>